<?xml version="1.0" encoding="UTF-8"?>
<svg width="800" height="800" viewBox="0 0 24 24" role="img" aria-labelledby="app-logo-dark-title" xmlns="http://www.w3.org/2000/svg">
  <title id="app-logo-dark-title">IPS App logo</title>
  <path
    d="M5.64,19.36a1,1,0,0,1-.7-.29,10,10,0,0,1,0-14.14,1,1,0,0,1,1.41,0,1,1,0,0,1,0,1.42,8,8,0,0,0,0,11.3,1,1,0,0,1,0,1.42A1,1,0,0,1,5.64,19.36Zm3.52-3.11a1,1,0,0,0,0-1.41,4,4,0,0,1,0-5.68,1,1,0,1,0-1.42-1.4,6,6,0,0,0,0,8.48,1,1,0,0,0,.71.3A1,1,0,0,0,9.16,16.25Zm9.9,2.82a10,10,0,0,0,0-14.14,1,1,0,0,0-1.41,0,1,1,0,0,0,0,1.42,8,8,0,0,1,0,11.3,1,1,0,0,0,0,1.42,1,1,0,0,0,.71.29A1,1,0,0,0,19.06,19.07Zm-2.81-2.83a6,6,0,0,0,0-8.48,1,1,0,1,0-1.42,1.4,4,4,0,0,1,0,5.68,1,1,0,0,0,0,1.41,1,1,0,0,0,.7.29A1,1,0,0,0,16.25,16.24Z"
    fill="#0F2854"
  />
  <circle cx="12" cy="12" r="1.5" fill="#4988C4" />
</svg>
